<svg xmlns="http://www.w3.org/2000/svg" viewBox="0 0 900 218" width="100%" role="img" aria-label="Forest plot of the stored per-trial and pooled estimates">
  <line x1="430.4" y1="8" x2="430.4" y2="148" stroke="currentColor" stroke-opacity=".45" stroke-dasharray="3 3"/>
  <text x="430.4" y="166" font-size="14" text-anchor="middle" fill="currentColor">0.8</text>
  <line x1="448.7" y1="8" x2="448.7" y2="148" stroke="currentColor" stroke-opacity=".45" stroke-dasharray="3 3"/>
  <text x="448.7" y="166" font-size="14" text-anchor="middle" fill="currentColor">0.9</text>
  <line x1="465.0" y1="8" x2="465.0" y2="148" stroke="currentColor" stroke-opacity=".45" stroke-dasharray="0"/>
  <text x="465.0" y="166" font-size="14" text-anchor="middle" fill="currentColor">1</text>
  <text x="465.0" y="188" font-size="13" text-anchor="middle" fill="currentColor" opacity=".85">RR (log scale). 1 = no difference.</text>
  <line x1="448.6" y1="26" x2="474.6" y2="26" stroke="currentColor" stroke-width="1.5"/>
  <rect x="454.6" y="19.0" width="14.0" height="14.0" fill="#1d4ed8"/>
  <text x="8" y="30" font-size="15" fill="currentColor">study-301</text>
  <text x="896" y="30" font-size="14" text-anchor="end" fill="currentColor">0.978 (0.9 to 1.06)</text>
  <line x1="428.0" y1="60" x2="463.7" y2="60" stroke="currentColor" stroke-width="1.5"/>
  <rect x="438.8" y="53.0" width="14.0" height="14.0" fill="#1d4ed8"/>
  <text x="8" y="64" font-size="15" fill="currentColor">study-316</text>
  <text x="896" y="64" font-size="14" text-anchor="end" fill="currentColor">0.884 (0.788 to 0.991)</text>
  <line x1="440.6" y1="94" x2="464.6" y2="94" stroke="currentColor" stroke-width="1.5"/>
  <rect x="445.6" y="87.0" width="14.0" height="14.0" fill="#1d4ed8"/>
  <text x="8" y="98" font-size="15" fill="currentColor">study-b1811185</text>
  <text x="896" y="98" font-size="14" text-anchor="end" fill="currentColor">0.923 (0.855 to 0.997)</text>
  <polygon points="446.7,132 454.6,124 462.5,132 454.6,140" fill="#0f766e"/>
  <text x="8" y="136" font-size="15" font-weight="700" fill="currentColor">Pooled (RR)</text>

</svg>